<mxfile host="app.diagrams.net" agent="Mozilla/5.0 (Windows NT 10.0; Win64; x64) AppleWebKit/537.36 (KHTML, like Gecko) Chrome/129.0.0.0 Safari/537.36" version="24.7.16">
  <diagram id="C5RBs43oDa-KdzZeNtuy" name="Page-1">
    <mxGraphModel dx="1674" dy="752" grid="1" gridSize="10" guides="1" tooltips="1" connect="1" arrows="1" fold="1" page="1" pageScale="1" pageWidth="827" pageHeight="1169" math="0" shadow="0">
      <root>
        <mxCell id="WIyWlLk6GJQsqaUBKTNV-0" />
        <mxCell id="WIyWlLk6GJQsqaUBKTNV-1" parent="WIyWlLk6GJQsqaUBKTNV-0" />
        <mxCell id="hICTg_DijpUoB0Jx6cvw-4" style="edgeStyle=orthogonalEdgeStyle;rounded=0;orthogonalLoop=1;jettySize=auto;html=1;entryX=0.5;entryY=0;entryDx=0;entryDy=0;" edge="1" parent="WIyWlLk6GJQsqaUBKTNV-1" source="hICTg_DijpUoB0Jx6cvw-0" target="hICTg_DijpUoB0Jx6cvw-3">
          <mxGeometry relative="1" as="geometry" />
        </mxCell>
        <mxCell id="hICTg_DijpUoB0Jx6cvw-0" value="START" style="strokeWidth=2;html=1;shape=mxgraph.flowchart.start_2;whiteSpace=wrap;" vertex="1" parent="WIyWlLk6GJQsqaUBKTNV-1">
          <mxGeometry x="364" y="20" width="100" height="100" as="geometry" />
        </mxCell>
        <mxCell id="hICTg_DijpUoB0Jx6cvw-19" style="edgeStyle=orthogonalEdgeStyle;rounded=0;orthogonalLoop=1;jettySize=auto;html=1;entryX=0.5;entryY=0;entryDx=0;entryDy=0;" edge="1" parent="WIyWlLk6GJQsqaUBKTNV-1" source="hICTg_DijpUoB0Jx6cvw-3" target="hICTg_DijpUoB0Jx6cvw-18">
          <mxGeometry relative="1" as="geometry" />
        </mxCell>
        <mxCell id="hICTg_DijpUoB0Jx6cvw-3" value="Introduce a number:" style="html=1;strokeWidth=2;shape=manualInput;whiteSpace=wrap;rounded=1;size=26;arcSize=11;" vertex="1" parent="WIyWlLk6GJQsqaUBKTNV-1">
          <mxGeometry x="362" y="170" width="104" height="70" as="geometry" />
        </mxCell>
        <mxCell id="hICTg_DijpUoB0Jx6cvw-14" style="edgeStyle=orthogonalEdgeStyle;rounded=0;orthogonalLoop=1;jettySize=auto;html=1;entryX=0.5;entryY=0;entryDx=0;entryDy=0;" edge="1" parent="WIyWlLk6GJQsqaUBKTNV-1" source="hICTg_DijpUoB0Jx6cvw-5" target="hICTg_DijpUoB0Jx6cvw-13">
          <mxGeometry relative="1" as="geometry" />
        </mxCell>
        <mxCell id="hICTg_DijpUoB0Jx6cvw-24" value="No" style="edgeLabel;html=1;align=center;verticalAlign=middle;resizable=0;points=[];" vertex="1" connectable="0" parent="hICTg_DijpUoB0Jx6cvw-14">
          <mxGeometry x="-0.2" y="3" relative="1" as="geometry">
            <mxPoint as="offset" />
          </mxGeometry>
        </mxCell>
        <mxCell id="hICTg_DijpUoB0Jx6cvw-21" style="edgeStyle=orthogonalEdgeStyle;rounded=0;orthogonalLoop=1;jettySize=auto;html=1;entryX=0.5;entryY=0;entryDx=0;entryDy=0;" edge="1" parent="WIyWlLk6GJQsqaUBKTNV-1" source="hICTg_DijpUoB0Jx6cvw-5" target="hICTg_DijpUoB0Jx6cvw-7">
          <mxGeometry relative="1" as="geometry">
            <Array as="points">
              <mxPoint x="610" y="515" />
              <mxPoint x="610" y="810" />
              <mxPoint x="426" y="810" />
            </Array>
          </mxGeometry>
        </mxCell>
        <mxCell id="hICTg_DijpUoB0Jx6cvw-23" value="Yes" style="edgeLabel;html=1;align=center;verticalAlign=middle;resizable=0;points=[];" vertex="1" connectable="0" parent="hICTg_DijpUoB0Jx6cvw-21">
          <mxGeometry x="-0.9444" y="3" relative="1" as="geometry">
            <mxPoint as="offset" />
          </mxGeometry>
        </mxCell>
        <mxCell id="hICTg_DijpUoB0Jx6cvw-5" value="Is input&lt;div&gt;greater than 0&lt;/div&gt;" style="strokeWidth=2;html=1;shape=mxgraph.flowchart.decision;whiteSpace=wrap;" vertex="1" parent="WIyWlLk6GJQsqaUBKTNV-1">
          <mxGeometry x="342" y="450" width="144" height="130" as="geometry" />
        </mxCell>
        <mxCell id="hICTg_DijpUoB0Jx6cvw-11" style="edgeStyle=orthogonalEdgeStyle;rounded=0;orthogonalLoop=1;jettySize=auto;html=1;" edge="1" parent="WIyWlLk6GJQsqaUBKTNV-1" source="hICTg_DijpUoB0Jx6cvw-7" target="hICTg_DijpUoB0Jx6cvw-10">
          <mxGeometry relative="1" as="geometry" />
        </mxCell>
        <mxCell id="hICTg_DijpUoB0Jx6cvw-7" value="System.out.println&lt;div&gt;Number accepted, shutting down&lt;/div&gt;" style="shape=parallelogram;html=1;strokeWidth=2;perimeter=parallelogramPerimeter;whiteSpace=wrap;rounded=1;arcSize=12;size=0.23;" vertex="1" parent="WIyWlLk6GJQsqaUBKTNV-1">
          <mxGeometry x="300" y="890" width="252" height="100" as="geometry" />
        </mxCell>
        <mxCell id="hICTg_DijpUoB0Jx6cvw-10" value="END" style="strokeWidth=2;html=1;shape=mxgraph.flowchart.terminator;whiteSpace=wrap;" vertex="1" parent="WIyWlLk6GJQsqaUBKTNV-1">
          <mxGeometry x="376" y="1040" width="100" height="60" as="geometry" />
        </mxCell>
        <mxCell id="hICTg_DijpUoB0Jx6cvw-22" style="edgeStyle=orthogonalEdgeStyle;rounded=0;orthogonalLoop=1;jettySize=auto;html=1;" edge="1" parent="WIyWlLk6GJQsqaUBKTNV-1" source="hICTg_DijpUoB0Jx6cvw-13">
          <mxGeometry relative="1" as="geometry">
            <mxPoint x="414" y="420" as="targetPoint" />
            <Array as="points">
              <mxPoint x="250" y="700" />
              <mxPoint x="250" y="420" />
            </Array>
          </mxGeometry>
        </mxCell>
        <mxCell id="hICTg_DijpUoB0Jx6cvw-13" value="Your number&amp;nbsp;&lt;div&gt;is incorrect&lt;/div&gt;" style="shape=parallelogram;html=1;strokeWidth=2;perimeter=parallelogramPerimeter;whiteSpace=wrap;rounded=1;arcSize=12;size=0.23;" vertex="1" parent="WIyWlLk6GJQsqaUBKTNV-1">
          <mxGeometry x="344" y="650" width="140" height="100" as="geometry" />
        </mxCell>
        <mxCell id="hICTg_DijpUoB0Jx6cvw-18" value="&lt;div&gt;input = keyboard.nextInt&lt;/div&gt;" style="rounded=1;whiteSpace=wrap;html=1;absoluteArcSize=1;arcSize=14;strokeWidth=2;" vertex="1" parent="WIyWlLk6GJQsqaUBKTNV-1">
          <mxGeometry x="364" y="300" width="100" height="100" as="geometry" />
        </mxCell>
        <mxCell id="hICTg_DijpUoB0Jx6cvw-20" style="edgeStyle=orthogonalEdgeStyle;rounded=0;orthogonalLoop=1;jettySize=auto;html=1;entryX=0.5;entryY=0;entryDx=0;entryDy=0;entryPerimeter=0;" edge="1" parent="WIyWlLk6GJQsqaUBKTNV-1" source="hICTg_DijpUoB0Jx6cvw-18" target="hICTg_DijpUoB0Jx6cvw-5">
          <mxGeometry relative="1" as="geometry" />
        </mxCell>
      </root>
    </mxGraphModel>
  </diagram>
</mxfile>
